HIERARCHY
ROOT hips
{
  OFFSET 0 10.6860622 2.3727825e-15
  CHANNELS 6 Xposition Yposition Zposition Yrotation Xrotation Zrotation
  JOINT leftUpperLeg
  {
    OFFSET 0.6642549969 -0.9402397400000004 0
    CHANNELS 3 Yrotation Xrotation Zrotation
    JOINT leftLowerLeg
    {
      OFFSET 0 -3.997221335632195 0
      CHANNELS 3 Yrotation Xrotation Zrotation
      JOINT leftFoot
      {
        OFFSET -0.13777839790000004 -4.6145792000000005 -0.22186036399999998
        CHANNELS 3 Yrotation Xrotation Zrotation
        JOINT leftToes
        {
          OFFSET -0.03777410834999995 -0.9130806927000008 0.85230013
          CHANNELS 3 Yrotation Xrotation Zrotation
          End Site
          {
            OFFSET -0.03777410834999995 -0.9130806927000008 0.85230013
          }
        }
      }
    }
  }
  JOINT rightUpperLeg
  {
    OFFSET -0.6642778626 -0.9402397400000004 0
    CHANNELS 3 Yrotation Xrotation Zrotation
    JOINT rightLowerLeg
    {
      OFFSET 0 -3.997221452859387 0
      CHANNELS 3 Yrotation Xrotation Zrotation
      JOINT rightFoot
      {
        OFFSET 0.1377926176 -4.6145792000000005 -0.22185782299999995
        CHANNELS 3 Yrotation Xrotation Zrotation
        JOINT rightToes
        {
          OFFSET 0.037780746850000047 -0.9130806927000008 0.85230167
          CHANNELS 3 Yrotation Xrotation Zrotation
          End Site
          {
            OFFSET 0.037780746850000047 -0.9130806927000008 0.85230167
          }
        }
      }
    }
  }
  JOINT spine
  {
    OFFSET 0 0.13988381660000015 0
    CHANNELS 3 Yrotation Xrotation Zrotation
    JOINT chest
    {
      OFFSET 0 0.6191039003973773 0
      CHANNELS 3 Yrotation Xrotation Zrotation
      JOINT upperChest
      {
        OFFSET 0 0.9855186130586943 0
        CHANNELS 3 Yrotation Xrotation Zrotation
        JOINT leftShoulder
        {
          OFFSET 0.1807663869 1.5087829790000005 0
          CHANNELS 3 Yrotation Xrotation Zrotation
          JOINT leftUpperArm
          {
            OFFSET 0.5985063006419806 0 0
            CHANNELS 3 Yrotation Xrotation Zrotation
            JOINT leftLowerArm
            {
              OFFSET 2.2993332369501065 0 0
              CHANNELS 3 Yrotation Xrotation Zrotation
              JOINT leftHand
              {
                OFFSET 2.395047042602395 0 0
                CHANNELS 3 Yrotation Xrotation Zrotation
                JOINT leftIndexProximal
                {
                  OFFSET 0.5766295810000004 0.04556643899499946 0.17265095988184
                  CHANNELS 3 Yrotation Xrotation Zrotation
                  JOINT leftIndexIntermediate
                  {
                    OFFSET 0.2957229000000008 -0.019352197700001517 -0.007932640616999987
                    CHANNELS 3 Yrotation Xrotation Zrotation
                    JOINT leftIndexDistal
                    {
                      OFFSET 0.19008243099999922 -0.012484908149998475 -0.002786250786000012
                      CHANNELS 3 Yrotation Xrotation Zrotation
                      End Site
                      {
                        OFFSET 0.19008243099999922 -0.012484908149998475 -0.002786250786000012
                      }
                    }
                  }
                }
                JOINT leftMiddleProximal
                {
                  OFFSET 0.5834975091000001 0.0524350405149987 0.02204081888183999
                  CHANNELS 3 Yrotation Xrotation Zrotation
                  JOINT leftMiddleIntermediate
                  {
                    OFFSET 0.33880573540000003 -0.019871473270000717 -0.00000971183179999946
                    CHANNELS 3 Yrotation Xrotation Zrotation
                    JOINT leftMiddleDistal
                    {
                      OFFSET 0.20676022730000088 -0.012221336379999448 0.0001471936708000235
                      CHANNELS 3 Yrotation Xrotation Zrotation
                      End Site
                      {
                        OFFSET 0.20676022730000088 -0.012221336379999448 0.0001471936708000235
                      }
                    }
                  }
                }
                JOINT leftLittleProximal
                {
                  OFFSET 0.5344154683999995 -0.012880921405001189 -0.24414037221816004
                  CHANNELS 3 Yrotation Xrotation Zrotation
                  JOINT leftLittleIntermediate
                  {
                    OFFSET 0.21758961730000093 -0.011650919939999227 0.011893592810000034
                    CHANNELS 3 Yrotation Xrotation Zrotation
                    JOINT leftLittleDistal
                    {
                      OFFSET 0.1475273964999999 -0.008152365682999818 0.006001092492999946
                      CHANNELS 3 Yrotation Xrotation Zrotation
                      End Site
                      {
                        OFFSET 0.1475273964999999 -0.008152365682999818 0.006001092492999946
                      }
                    }
                  }
                }
                JOINT leftRingProximal
                {
                  OFFSET 0.5799399463000003 0.026911854694997794 -0.12150566991816003
                  CHANNELS 3 Yrotation Xrotation Zrotation
                  JOINT leftRingIntermediate
                  {
                    OFFSET 0.26167887460000006 -0.013480186499999602 0.010996293000000053
                    CHANNELS 3 Yrotation Xrotation Zrotation
                    JOINT leftRingDistal
                    {
                      OFFSET 0.17667108799999987 -0.008990287899999228 0.0055541023999999065
                      CHANNELS 3 Yrotation Xrotation Zrotation
                      End Site
                      {
                        OFFSET 0.17667108799999987 -0.008990287899999228 0.0055541023999999065
                      }
                    }
                  }
                }
                JOINT leftThumbProximal
                {
                  OFFSET 0.11018806699999972 -0.09448718900500053 0.17047963138184
                  CHANNELS 3 Yrotation Xrotation Zrotation
                  JOINT leftThumbIntermediate
                  {
                    OFFSET 0.31062601459999983 -0.08126270900000132 0.15443142000000007
                    CHANNELS 3 Yrotation Xrotation Zrotation
                    JOINT leftThumbDistal
                    {
                      OFFSET 0.21627175790000086 -0.08833193599999878 0.018771167799999988
                      CHANNELS 3 Yrotation Xrotation Zrotation
                      End Site
                      {
                        OFFSET 0.21627175790000086 -0.08833193599999878 0.018771167799999988
                      }
                    }
                  }
                }
              }
            }
          }
        }
        JOINT neck
        {
          OFFSET 0 1.5463305265074576 0
          CHANNELS 3 Yrotation Xrotation Zrotation
          JOINT head
          {
            OFFSET 0 0.8456443600000344 0
            CHANNELS 3 Yrotation Xrotation Zrotation
            JOINT leftEye
            {
              OFFSET 0.30408573140000006 0.5104519199999995 0.1276382305
              CHANNELS 3 Yrotation Xrotation Zrotation
              End Site
              {
                OFFSET 0.30408573140000006 0.5104519199999995 0.1276382305
              }
            }
            JOINT rightEye
            {
              OFFSET -0.30409491089999996 0.5104519199999995 0.1276379445
              CHANNELS 3 Yrotation Xrotation Zrotation
              End Site
              {
                OFFSET -0.30409491089999996 0.5104519199999995 0.1276379445
              }
            }
            JOINT jaw
            {
              OFFSET -3.155239131000001e-7 -0.11984121820000082 0.60178107
              CHANNELS 3 Yrotation Xrotation Zrotation
              End Site
              {
                OFFSET -3.155239131000001e-7 -0.11984121820000082 0.60178107
              }
            }
          }
        }
        JOINT rightShoulder
        {
          OFFSET -0.1807303465 1.5087829790000005 0
          CHANNELS 3 Yrotation Xrotation Zrotation
          JOINT rightUpperArm
          {
            OFFSET -0.5985063796536958 0 0
            CHANNELS 3 Yrotation Xrotation Zrotation
            JOINT rightLowerArm
            {
              OFFSET -2.2993322059002854 0 0
              CHANNELS 3 Yrotation Xrotation Zrotation
              JOINT rightHand
              {
                OFFSET -2.395045314457259 0 0
                CHANNELS 3 Yrotation Xrotation Zrotation
                JOINT rightIndexProximal
                {
                  OFFSET -0.5764487688300002 0.0441371204405987 0.17361932004999997
                  CHANNELS 3 Yrotation Xrotation Zrotation
                  JOINT rightIndexIntermediate
                  {
                    OFFSET -0.29573011380000047 -0.01934826376999843 -0.007698921482999974
                    CHANNELS 3 Yrotation Xrotation Zrotation
                    JOINT rightIndexDistal
                    {
                      OFFSET -0.19008373999999884 -0.012503266380000655 -0.0026365778999999897
                      CHANNELS 3 Yrotation Xrotation Zrotation
                      End Site
                      {
                        OFFSET -0.19008373999999884 -0.012503266380000655 -0.0026365778999999897
                      }
                    }
                  }
                }
                JOINT rightMiddleProximal
                {
                  OFFSET -0.5834852037300005 0.05211639405060153 0.02307162440000001
                  CHANNELS 3 Yrotation Xrotation Zrotation
                  JOINT rightMiddleIntermediate
                  {
                    OFFSET -0.33880114510000003 -0.019952774050000954 0.0002455003561999819
                    CHANNELS 3 Yrotation Xrotation Zrotation
                    JOINT rightMiddleDistal
                    {
                      OFFSET -0.20675694929999955 -0.012273788999999091 0.00030209124000002766
                      CHANNELS 3 Yrotation Xrotation Zrotation
                      End Site
                      {
                        OFFSET -0.20675694929999955 -0.012273788999999091 0.00030209124000002766
                      }
                    }
                  }
                }
                JOINT rightLittleProximal
                {
                  OFFSET -0.5346811737299992 -0.011214256288399227 -0.24363941305000003
                  CHANNELS 3 Yrotation Xrotation Zrotation
                  JOINT rightLittleIntermediate
                  {
                    OFFSET -0.21757715980000092 -0.011771559690000988 0.01201554387
                    CHANNELS 3 Yrotation Xrotation Zrotation
                    JOINT rightLittleDistal
                    {
                      OFFSET -0.1475201849000004 -0.00822055339600003 0.006082065407000015
                      CHANNELS 3 Yrotation Xrotation Zrotation
                      End Site
                      {
                        OFFSET -0.1475201849000004 -0.00822055339600003 0.006082065407000015
                      }
                    }
                  }
                }
                JOINT rightRingProximal
                {
                  OFFSET -0.5800810755299999 0.027657985680600072 -0.12066365025000003
                  CHANNELS 3 Yrotation Xrotation Zrotation
                  JOINT rightRingIntermediate
                  {
                    OFFSET -0.26166445029999974 -0.013623118409999302 0.011164098990000045
                    CHANNELS 3 Yrotation Xrotation Zrotation
                    JOINT rightRingDistal
                    {
                      OFFSET -0.17666387530000027 -0.009072900100000503 0.005668185599999959
                      CHANNELS 3 Yrotation Xrotation Zrotation
                      End Site
                      {
                        OFFSET -0.17666387530000027 -0.009072900100000503 0.005668185599999959
                      }
                    }
                  }
                }
                JOINT rightThumbProximal
                {
                  OFFSET -0.10997596379000074 -0.09577489355940072 0.16989765924999997
                  CHANNELS 3 Yrotation Xrotation Zrotation
                  JOINT rightThumbIntermediate
                  {
                    OFFSET -0.31036620999999986 -0.08229339117999834 0.15440884469999996
                    CHANNELS 3 Yrotation Xrotation Zrotation
                    JOINT rightThumbDistal
                    {
                      OFFSET -0.21631306399999906 -0.08825326400000111 0.018656797720000014
                      CHANNELS 3 Yrotation Xrotation Zrotation
                      End Site
                      {
                        OFFSET -0.21631306399999906 -0.08825326400000111 0.018656797720000014
                      }
                    }
                  }
                }
              }
            }
          }
        }
      }
    }
  }
}
MOTION
Frames: 5
Frame Time: 0.03333333333333333
-1.1882346731507638 -9.413769004649753 1.0447756045022294 72.4268738840026 -0.0006806938116509485 -90.00325927046902 11.922259393909824 -53.22100134384574 -7.047047636243795 -1.131717406143129 27.000624081441824 2.7071790268708424 -4.2927951914709865 55.36664968264456 -4.470808875484786 0 0 0 -13.337220782649975 -54.68358180368358 -4.9635345896948415 -94.13068924377696 67.90423974747402 -30.832018865740764 6.725829323252167 31.86620374667022 1.465678902354781 0 0 0 -1.1530525218104974 -0.5260782733929238 -2.452674265477531 0.21250023690361103 -25.742203103649086 3.358344680625612 0 0 0 -0.42236824081817415 9.503874360780737 -10.174552014559637 -54.206655892026475 -41.353064033730035 -17.676127966682177 -9.473319174638085 -9.85694220893474 -65.88274308727698 -9.765074140712976 -0.7576663649737101 -31.970043191748434 0 0 0 0 0 0 0 0 0 0 0 0 0 0 0 0 0 0 0 0 0 0 0 0 0 0 0 0 0 0 0 0 0 0 0 0 0 0 0 0 0 0 0 0 0 -0.7691968226875204 -23.40221988356013 -19.910903925026435 1.0061274795398987 16.875611216882138 32.05150086429244 0 0 0 0 0 0 0 0 0 -21.755003950654377 -2.696932281588924 -13.792710687712086 44.251732658523565 -36.4237773642498 48.89005719033623 59.12204222623491 -52.0767612050868 30.10599692301734 3.959548777319303 -13.172843020006992 46.199359930482636 0 0 0 0 0 0 0 0 0 0 0 0 0 0 0 0 0 0 0 0 0 0 0 0 0 0 0 0 0 0 0 0 0 0 0 0 0 0 0 0 0 0 0 0 0
-1.2116907262374679 -9.413769004649753 1.0343336242588856 71.99965439935347 -0.0007348614347845329 -90.00320029901445 12.008220273049673 -53.56603014288825 -7.176875320168251 -1.1489479293007463 26.567647233899564 2.6662585920573485 -4.271397152055733 55.72802935609088 -4.465472751943824 0 0 0 -13.783793571962095 -55.116560182194505 -4.549684344314269 -93.82868138955835 67.6927445272215 -30.48453186974072 6.620648139760807 32.08328025243444 1.2149795729949155 0 0 0 -1.1541421273281456 -0.24251021911042983 -2.4612456881440314 0.22479214170735123 -26.67807166602128 3.3217637691232165 0 0 0 -0.5358780553731762 9.898158651598903 -10.237488920313135 -54.07161335888143 -41.29523825215774 -17.748513107218297 -9.431556937282444 -9.767105414647151 -65.64048761675295 -9.765074140712976 -0.7576663649737101 -31.970043191748434 0 0 0 0 0 0 0 0 0 0 0 0 0 0 0 0 0 0 0 0 0 0 0 0 0 0 0 0 0 0 0 0 0 0 0 0 0 0 0 0 0 0 0 0 0 -0.8213849216625978 -23.286743540269637 -20.596211793268125 1.035047034524402 16.91912675013669 32.29806498233137 0 0 0 0 0 0 0 0 0 -21.98691595765365 -2.419776971350603 -13.86517632560286 44.28883006127745 -36.4348470588283 48.99317801303142 59.10578409910707 -52.07006604462668 30.198185801034995 4.011137116368797 -13.090058167795787 46.24209220184806 0 0 0 0 0 0 0 0 0 0 0 0 0 0 0 0 0 0 0 0 0 0 0 0 0 0 0 0 0 0 0 0 0 0 0 0 0 0 0 0 0 0 0 0 0
-1.1882346731507638 -9.413769004649753 1.044775515038139 72.4268738840026 -0.0006833604994302682 -90.00325925066713 11.922258696302734 -53.22100134384574 -7.047047636243795 -1.131717406143129 27.000624081441824 2.7071790268708424 -4.2927951914709865 55.36664968264456 -4.470808875484786 0 0 0 -13.337220782649975 -54.68358180368358 -4.9635342218586125 -94.13068924377696 67.90423974747402 -30.832018865740764 6.725828824067747 31.86620374667022 1.465678651115174 0 0 0 -1.1530525218104974 -0.5260779532143102 -2.452674265477531 0.2125002517135054 -25.742203103649086 3.358344444072601 0 0 0 -0.4223683490221384 9.503875226435987 -10.174552014559637 -54.206655892026475 -41.353064033730035 -17.67612550161182 -9.473319174638085 -9.85694220893474 -65.88274308727698 -9.765074140712976 -0.7576663649737101 -31.970043191748434 0 0 0 0 0 0 0 0 0 0 0 0 0 0 0 0 0 0 0 0 0 0 0 0 0 0 0 0 0 0 0 0 0 0 0 0 0 0 0 0 0 0 0 0 0 -0.7691971715189218 -23.402218022958326 -19.910903925026435 1.0061274795398987 16.875611216882138 32.05150086429244 0 0 0 0 0 0 0 0 0 -21.755003950654377 -2.696932281588924 -13.792710687712086 44.25173273690872 -36.423773120037716 48.89005399253767 59.12204222623491 -52.0767612050868 30.10599692301734 3.959548777319303 -13.172843020006992 46.1993575028422 0 0 0 0 0 0 0 0 0 0 0 0 0 0 0 0 0 0 0 0 0 0 0 0 0 0 0 0 0 0 0 0 0 0 0 0 0 0 0 0 0 0 0 0 0
-1.1647786200640597 -9.413769004649753 1.0552174058173922 72.85409157355922 -0.0006314214214484967 -90.00331781649584 11.83827869566415 -52.87585537437251 -6.919112682604753 -1.1140713510122424 27.433589264982075 2.7484056944621003 -4.313940834371057 55.00527095466733 -4.4758611918040465 0 0 0 -12.900720515958973 -54.24877838438616 -5.367230864037181 -94.43890078832918 68.11502774300861 -31.18567647948402 6.829646545847179 31.648742677336056 1.7153213627040522 0 0 0 -1.1520269886256724 -0.8096456597916453 -2.4440994344140727 0.20096102670305116 -24.806327201147983 3.3944227783203433 0 0 0 -0.3094253163351483 9.109469646733714 -10.112477526858159 -54.341918595096665 -41.41075908615379 -17.603493262013988 -9.514705801552669 -9.946951708092138 -66.1250002308008 -9.765074140712976 -0.7576663649737101 -31.970043191748434 0 0 0 0 0 0 0 0 0 0 0 0 0 0 0 0 0 0 0 0 0 0 0 0 0 0 0 0 0 0 0 0 0 0 0 0 0 0 0 0 0 0 0 0 0 -0.7184736301829143 -23.518258873711883 -19.22511173312012 0.9774104153531713 16.831977260847278 31.80501731335518 0 0 0 0 0 0 0 0 0 -21.52338755829577 -2.9743781696878306 -13.721351263860187 44.21461502020571 -36.41275592729319 48.78693606137436 59.138316166756425 -52.083440697628845 30.0137884763048 3.908005942664596 -13.255664648369072 46.156686502438944 0 0 0 0 0 0 0 0 0 0 0 0 0 0 0 0 0 0 0 0 0 0 0 0 0 0 0 0 0 0 0 0 0 0 0 0 0 0 0 0 0 0 0 0 0
-1.1413225669773557 -9.413769004649753 1.0656592965966456 73.28131025101845 -0.0005790470669006239 -90.00337599379084 11.756228595570676 -52.530599481171365 -6.793017611812841 -1.0960029530188515 27.866544339473702 2.7899466343385932 -4.3348433535799415 54.643884864803184 -4.480638099367831 0 0 0 -12.473970881904556 -53.81222302910168 -5.761097627783661 -94.75347555145792 68.3250918102115 -31.545663641036164 6.932110966821124 31.430900626119772 1.9639205691365522 0 0 0 -1.1510657148993788 -1.0932133472795584 -2.435520418667444 0.1901511321913745 -23.870445568466153 3.430029332334167 0 0 0 -0.19703645023507194 8.714944396895115 -10.051257485105074 -54.47739524377417 -41.46832767717837 -17.53061337036962 -9.55571746574356 -10.037133409447632 -66.36725780628713 -9.765074140712976 -0.7576663649737101 -31.970043191748434 0 0 0 0 0 0 0 0 0 0 0 0 0 0 0 0 0 0 0 0 0 0 0 0 0 0 0 0 0 0 0 0 0 0 0 0 0 0 0 0 0 0 0 0 0 -0.6692248453315607 -23.63484756175589 -18.538823754271124 0.9488963805191155 16.788224938669103 31.558616538381454 0 0 0 0 0 0 0 0 0 -21.292055304910463 -3.2521098084169973 -13.65109615902854 44.17747994100269 -36.40179121303133 48.68382604195106 59.15461115001894 -52.09010451530816 29.92156752701661 3.8565093405594544 -13.338524140936862 46.11407662563541 0 0 0 0 0 0 0 0 0 0 0 0 0 0 0 0 0 0 0 0 0 0 0 0 0 0 0 0 0 0 0 0 0 0 0 0 0 0 0 0 0 0 0 0 0
